<svg width="1600" height="1550" xmlns="http://www.w3.org/2000/svg">
 <g>
  <title>background</title>
  <rect height="1552" width="1602" fill="none" id="canvas_background" y="-1" x="-1"/>
 </g>

 <g>
  <title>Layer 1</title>
  <g id="svg_1" transform="rotate(45, 731, 45)">
   <g id="svg_2">
    <g id="svg_3" transform="translate(320) scale(2.85714)">
     <g id="svg_4" fill=" rgb(256, 256, 256)">
      <path id="svg_5" d="m262.849,8.75l0,14c0,0 -9.151,-4.381 -14,-0.551c0,0 -0.241,-13.449 14,-13.449z"/>
     </g>
    </g>
    <g id="svg_6" transform="translate(360) scale(2.85714)">
     <g id="svg_7" fill=" rgb(256, 256, 256)">
      <path id="svg_8" d="m248.85,22.75l0,-14c0,0 9.15,4.38 14,0.55c0,0 0.24,13.45 -14,13.45z"/>
     </g>
    </g>
    <g id="svg_9" transform="translate(440) scale(0.08)">
     <g id="svg_10" fill=" rgb(256, 256, 256)">
      <path id="svg_11" d="m9137.5,312.5c138.077,0 250,111.93 250,250c0,138.077 -111.923,250 -250,250c-138.07,0 -250,-111.923 -250,-250c0,-138.07 111.93,-250 250,-250z"/>
     </g>
    </g>
    <g id="svg_12" transform="translate(520) scale(2.85714)">
     <g id="svg_13" fill=" rgb(256, 256, 256)">
      <path id="svg_14" d="m262.849,8.75l0,14c0,0 -9.151,-4.381 -14,-0.551c0,0 -0.241,-13.449 14,-13.449z"/>
     </g>
    </g>
    <g id="svg_15" transform="translate(560) scale(0.4)">
     <g id="svg_16" fill=" rgb(256, 256, 256)">
      <rect id="svg_17" x="1777.5" y="62.5" height="100" width="100"/>
     </g>
    </g>
    <g id="svg_18" transform="translate(600) scale(0.4)">
     <g id="svg_19" fill=" rgb(256, 256, 256)">
      <rect id="svg_20" x="1777.5" y="62.5" height="100" width="100"/>
     </g>
    </g>
    <g id="svg_21" transform="translate(640) scale(2.85714)">
     <g id="svg_22" fill=" rgb(256, 256, 256)">
      <path id="svg_23" d="m248.85,22.75l0,-14c0,0 9.15,4.38 14,0.55c0,0 0.24,13.45 -14,13.45z"/>
     </g>
    </g>
    <g id="svg_24" transform="translate(400, 40) scale(0.08)">
     <g id="svg_25" fill=" rgb(256, 256, 256)">
      <path id="svg_26" d="m9137.5,312.5c138.077,0 250,111.93 250,250c0,138.077 -111.923,250 -250,250c-138.07,0 -250,-111.923 -250,-250c0,-138.07 111.93,-250 250,-250z"/>
     </g>
    </g>
    <g id="svg_27" transform="translate(480, 40) scale(2.85714)">
     <g id="svg_28" fill=" rgb(256, 256, 256)">
      <path id="svg_29" d="m262.85,22.75l-14,0c0,0 4.38,-9.15 0.55,-14c0,0 13.45,-0.24 13.45,14z"/>
     </g>
    </g>
    <g id="svg_30" transform="translate(440, 80) scale(2.85714)">
     <g id="svg_31" fill=" rgb(256, 256, 256)">
      <path id="svg_32" d="m262.849,8.75l0,14c0,0 -9.151,-4.381 -14,-0.551c0,0 -0.241,-13.449 14,-13.449z"/>
     </g>
    </g>
    <g id="svg_33" transform="translate(480, 80) scale(0.4)">
     <g id="svg_34" fill=" rgb(256, 256, 256)">
      <rect id="svg_35" x="1777.5" y="62.5" height="100" width="100"/>
     </g>
    </g>
    <g id="svg_36" transform="translate(560, 80) scale(0.08)">
     <g id="svg_37" fill=" rgb(256, 256, 256)">
      <path id="svg_38" d="m9137.5,312.5c138.077,0 250,111.93 250,250c0,138.077 -111.923,250 -250,250c-138.07,0 -250,-111.923 -250,-250c0,-138.07 111.93,-250 250,-250z"/>
     </g>
    </g>
    <g id="svg_39" transform="translate(640, 80) scale(0.08)">
     <g id="svg_40" fill=" rgb(256, 256, 256)">
      <path id="svg_41" d="m9137.5,312.5c138.077,0 250,111.93 250,250c0,138.077 -111.923,250 -250,250c-138.07,0 -250,-111.923 -250,-250c0,-138.07 111.93,-250 250,-250z"/>
     </g>
    </g>
    <g id="svg_42" transform="translate(320, 120) scale(2.85714)">
     <g id="svg_43" fill=" rgb(256, 256, 256)">
      <path id="svg_44" d="m262.849,8.749l0,14l-13.97,0l-0.029,0l0,-3.431c0,-5.839 6.267,-10.569 13.999,-10.569z"/>
     </g>
    </g>
    <g id="svg_45" transform="translate(360, 120) scale(0.4)">
     <g id="svg_46" fill=" rgb(256, 256, 256)">
      <rect id="svg_47" x="1777.5" y="62.5" height="100" width="100"/>
     </g>
    </g>
    <g id="svg_48" transform="translate(400, 120) scale(2.85714)">
     <g id="svg_49" fill=" rgb(256, 256, 256)">
      <path id="svg_50" d="m248.85,22.75l0,-14c0,0 9.15,4.38 14,0.55c0,0 0.24,13.45 -14,13.45z"/>
     </g>
    </g>
    <g id="svg_51" transform="translate(480, 120) scale(2.85714)">
     <g id="svg_52" fill=" rgb(256, 256, 256)">
      <path id="svg_53" d="m248.849,8.75l14,0c0,0 -4.381,9.151 -0.551,14c0,0 -13.449,0.24 -13.449,-14z"/>
     </g>
    </g>
    <g id="svg_54" transform="translate(600, 120) scale(2.85714)">
     <g id="svg_55" fill=" rgb(256, 256, 256)">
      <path id="svg_56" d="m262.85,22.75l-14,0c0,0 4.38,-9.15 0.55,-14c0,0 13.45,-0.24 13.45,14z"/>
     </g>
    </g>
    <g id="svg_57" transform="translate(320, 160) scale(0.4)">
     <g id="svg_58" fill=" rgb(256, 256, 256)">
      <rect id="svg_59" x="1777.5" y="62.5" height="100" width="100"/>
     </g>
    </g>
    <g id="svg_60" transform="translate(440, 160) scale(0.08)">
     <g id="svg_61" fill=" rgb(256, 256, 256)">
      <path id="svg_62" d="m9137.5,312.5c138.077,0 250,111.93 250,250c0,138.077 -111.923,250 -250,250c-138.07,0 -250,-111.923 -250,-250c0,-138.07 111.93,-250 250,-250z"/>
     </g>
    </g>
    <g id="svg_63" transform="translate(560, 160) scale(2.85714)">
     <g id="svg_64" fill=" rgb(256, 256, 256)">
      <path id="svg_65" d="m262.849,8.75l0,14c0,0 -9.151,-4.381 -14,-0.551c0,0 -0.241,-13.449 14,-13.449z"/>
     </g>
    </g>
    <g id="svg_66" transform="translate(600, 160) scale(0.4)">
     <g id="svg_67" fill=" rgb(256, 256, 256)">
      <rect id="svg_68" x="1777.5" y="62.5" height="100" width="100"/>
     </g>
    </g>
    <g id="svg_69" transform="translate(640, 160) scale(2.85714)">
     <g id="svg_70" fill=" rgb(256, 256, 256)">
      <path id="svg_71" d="m262.849,22.749l-13.999,0l0,-13.971l0,-0.029l3.43,0c5.839,0 10.569,6.268 10.569,14z"/>
     </g>
    </g>
    <g id="svg_72" transform="translate(320, 200) scale(0.4)">
     <g id="svg_73" fill=" rgb(256, 256, 256)">
      <rect id="svg_74" x="1777.5" y="62.5" height="100" width="100"/>
     </g>
    </g>
    <g id="svg_75" transform="translate(360, 200) scale(2.85714)">
     <g id="svg_76" fill=" rgb(256, 256, 256)">
      <path id="svg_77" d="m248.85,22.75l0,-14c0,0 9.15,4.38 14,0.55c0,0 0.24,13.45 -14,13.45z"/>
     </g>
    </g>
    <g id="svg_78" transform="translate(480, 200) scale(2.85714)">
     <g id="svg_79" fill=" rgb(256, 256, 256)">
      <path id="svg_80" d="m262.85,22.75l-14,0c0,0 4.38,-9.15 0.55,-14c0,0 13.45,-0.24 13.45,14z"/>
     </g>
    </g>
    <g id="svg_81" transform="translate(640, 200) scale(0.4)">
     <g id="svg_82" fill=" rgb(256, 256, 256)">
      <rect id="svg_83" x="1777.5" y="62.5" height="100" width="100"/>
     </g>
    </g>
    <g id="svg_84" transform="translate(320, 240) scale(0.4)">
     <g id="svg_85" fill=" rgb(256, 256, 256)">
      <rect id="svg_86" x="1777.5" y="62.5" height="100" width="100"/>
     </g>
    </g>
    <g id="svg_87" transform="translate(400, 240) scale(0.08)">
     <g id="svg_88" fill=" rgb(256, 256, 256)">
      <path id="svg_89" d="m9137.5,312.5c138.077,0 250,111.93 250,250c0,138.077 -111.923,250 -250,250c-138.07,0 -250,-111.923 -250,-250c0,-138.07 111.93,-250 250,-250z"/>
     </g>
    </g>
    <g id="svg_90" transform="translate(480, 240) scale(0.4)">
     <g id="svg_91" fill=" rgb(256, 256, 256)">
      <rect id="svg_92" x="1777.5" y="62.5" height="100" width="100"/>
     </g>
    </g>
    <g id="svg_93" transform="translate(560, 240) scale(0.08)">
     <g id="svg_94" fill=" rgb(256, 256, 256)">
      <path id="svg_95" d="m9137.5,312.5c138.077,0 250,111.93 250,250c0,138.077 -111.923,250 -250,250c-138.07,0 -250,-111.923 -250,-250c0,-138.07 111.93,-250 250,-250z"/>
     </g>
    </g>
    <g id="svg_96" transform="translate(640, 240) scale(2.85714)">
     <g id="svg_97" fill=" rgb(256, 256, 256)">
      <path id="svg_98" d="m248.849,8.75l14,0c0,0 -4.381,9.151 -0.551,14c0,0 -13.449,0.24 -13.449,-14z"/>
     </g>
    </g>
    <g id="svg_99" transform="translate(320, 280) scale(0.4)">
     <g id="svg_100" fill=" rgb(256, 256, 256)">
      <rect id="svg_101" x="1777.5" y="62.5" height="100" width="100"/>
     </g>
    </g>
    <g id="svg_102" transform="translate(480, 280) scale(0.4)">
     <g id="svg_103" fill=" rgb(256, 256, 256)">
      <rect id="svg_104" x="1777.5" y="62.5" height="100" width="100"/>
     </g>
    </g>
    <g id="svg_105" transform="translate(520, 280) scale(2.85714)">
     <g id="svg_106" fill=" rgb(256, 256, 256)">
      <path id="svg_107" d="m262.849,22.749l-13.999,0l0,-13.971l0,-0.029l3.43,0c5.839,0 10.569,6.268 10.569,14z"/>
     </g>
    </g>
    <g id="svg_108" transform="translate(0, 320) scale(0.08)">
     <g id="svg_109" fill=" rgb(256, 256, 256)">
      <path id="svg_110" d="m9137.5,312.5c138.077,0 250,111.93 250,250c0,138.077 -111.923,250 -250,250c-138.07,0 -250,-111.923 -250,-250c0,-138.07 111.93,-250 250,-250z"/>
     </g>
    </g>
    <g id="svg_111" transform="translate(160, 320) scale(2.85714)">
     <g id="svg_112" fill=" rgb(256, 256, 256)">
      <path id="svg_113" d="m262.85,22.75l-14,0c0,0 4.38,-9.15 0.55,-14c0,0 13.45,-0.24 13.45,14z"/>
     </g>
    </g>
    <g id="svg_114" transform="translate(240, 320) scale(2.85714)">
     <g id="svg_115" fill=" rgb(256, 256, 256)">
      <path id="svg_116" d="m262.849,8.75l0,14c0,0 -9.151,-4.381 -14,-0.551c0,0 -0.241,-13.449 14,-13.449z"/>
     </g>
    </g>
    <g id="svg_117" transform="translate(280, 320) scale(0.4)">
     <g id="svg_118" fill=" rgb(256, 256, 256)">
      <rect id="svg_119" x="1777.5" y="62.5" height="100" width="100"/>
     </g>
    </g>
    <g id="svg_120" transform="translate(320, 320) scale(2.85714)">
     <g id="svg_121" fill=" rgb(256, 256, 256)">
      <path id="svg_122" d="m248.85,22.75l0,-14l13.971,0l0.029,0l0,3.43c0,5.84 -6.268,10.57 -14,10.57z"/>
     </g>
    </g>
    <g id="svg_123" transform="translate(400, 320) scale(2.85714)">
     <g id="svg_124" fill=" rgb(256, 256, 256)">
      <path id="svg_125" d="m262.849,8.75l0,14c0,0 -9.151,-4.381 -14,-0.551c0,0 -0.241,-13.449 14,-13.449z"/>
     </g>
    </g>
    <g id="svg_126" transform="translate(440, 320) scale(0.4)">
     <g id="svg_127" fill=" rgb(256, 256, 256)">
      <rect id="svg_128" x="1777.5" y="62.5" height="100" width="100"/>
     </g>
    </g>
    <g id="svg_129" transform="translate(480, 320) scale(0.4)">
     <g id="svg_130" fill=" rgb(256, 256, 256)">
      <rect id="svg_131" x="1777.5" y="62.5" height="100" width="100"/>
     </g>
    </g>
    <g id="svg_132" transform="translate(520, 320) scale(0.4)">
     <g id="svg_133" fill=" rgb(256, 256, 256)">
      <rect id="svg_134" x="1777.5" y="62.5" height="100" width="100"/>
     </g>
    </g>
    <g id="svg_135" transform="translate(600, 320) scale(2.85714)">
     <g id="svg_136" fill=" rgb(256, 256, 256)">
      <path id="svg_137" d="m262.85,22.75l-14,0c0,0 4.38,-9.15 0.55,-14c0,0 13.45,-0.24 13.45,14z"/>
     </g>
    </g>
    <g id="svg_138" transform="translate(680, 320) scale(2.85714)">
     <g id="svg_139" fill=" rgb(256, 256, 256)">
      <path id="svg_140" d="m262.849,8.75l0,14c0,0 -9.151,-4.381 -14,-0.551c0,0 -0.241,-13.449 14,-13.449z"/>
     </g>
    </g>
    <g id="svg_141" transform="translate(720, 320) scale(0.4)">
     <g id="svg_142" fill=" rgb(256, 256, 256)">
      <rect id="svg_143" x="1777.5" y="62.5" height="100" width="100"/>
     </g>
    </g>
    <g id="svg_144" transform="translate(760, 320) scale(0.4)">
     <g id="svg_145" fill=" rgb(256, 256, 256)">
      <rect id="svg_146" x="1777.5" y="62.5" height="100" width="100"/>
     </g>
    </g>
    <g id="svg_147" transform="translate(800, 320) scale(0.4)">
     <g id="svg_148" fill=" rgb(256, 256, 256)">
      <rect id="svg_149" x="1777.5" y="62.5" height="100" width="100"/>
     </g>
    </g>
    <g id="svg_150" transform="translate(840, 320) scale(2.85714)">
     <g id="svg_151" fill=" rgb(256, 256, 256)">
      <path id="svg_152" d="m262.849,22.749l-13.999,0l0,-13.971l0,-0.029l3.43,0c5.839,0 10.569,6.268 10.569,14z"/>
     </g>
    </g>
    <g id="svg_153" transform="translate(960, 320) scale(0.08)">
     <g id="svg_154" fill=" rgb(256, 256, 256)">
      <path id="svg_155" d="m9137.5,312.5c138.077,0 250,111.93 250,250c0,138.077 -111.923,250 -250,250c-138.07,0 -250,-111.923 -250,-250c0,-138.07 111.93,-250 250,-250z"/>
     </g>
    </g>
    <g id="svg_156" transform="translate(160, 360) scale(2.85714)">
     <g id="svg_157" fill=" rgb(256, 256, 256)">
      <path id="svg_158" d="m248.849,8.75l14,0c0,0 -4.381,9.151 -0.551,14c0,0 -13.449,0.24 -13.449,-14z"/>
     </g>
    </g>
    <g id="svg_159" transform="translate(280, 360) scale(2.85714)">
     <g id="svg_160" fill=" rgb(256, 256, 256)">
      <path id="svg_161" d="m248.849,8.75l14,0c0,0 -4.381,9.151 -0.551,14c0,0 -13.449,0.24 -13.449,-14z"/>
     </g>
    </g>
    <g id="svg_162" transform="translate(360, 360) scale(0.08)">
     <g id="svg_163" fill=" rgb(256, 256, 256)">
      <path id="svg_164" d="m9137.5,312.5c138.077,0 250,111.93 250,250c0,138.077 -111.923,250 -250,250c-138.07,0 -250,-111.923 -250,-250c0,-138.07 111.93,-250 250,-250z"/>
     </g>
    </g>
    <g id="svg_165" transform="translate(520, 360) scale(2.85714)">
     <g id="svg_166" fill=" rgb(256, 256, 256)">
      <path id="svg_167" d="m248.85,8.749l14,0l0,13.97l0,0.029l-3.431,0.001c-5.838,0 -10.569,-6.268 -10.569,-14z"/>
     </g>
    </g>
    <g id="svg_168" transform="translate(560, 360) scale(0.4)">
     <g id="svg_169" fill=" rgb(256, 256, 256)">
      <rect id="svg_170" x="1777.5" y="62.5" height="100" width="100"/>
     </g>
    </g>
    <g id="svg_171" transform="translate(600, 360) scale(0.4)">
     <g id="svg_172" fill=" rgb(256, 256, 256)">
      <rect id="svg_173" x="1777.5" y="62.5" height="100" width="100"/>
     </g>
    </g>
    <g id="svg_174" transform="translate(640, 360) scale(2.85714)">
     <g id="svg_175" fill=" rgb(256, 256, 256)">
      <path id="svg_176" d="m262.849,22.749l-13.999,0l0,-13.971l0,-0.029l3.43,0c5.839,0 10.569,6.268 10.569,14z"/>
     </g>
    </g>
    <g id="svg_177" transform="translate(800, 360) scale(0.4)">
     <g id="svg_178" fill=" rgb(256, 256, 256)">
      <rect id="svg_179" x="1777.5" y="62.5" height="100" width="100"/>
     </g>
    </g>
    <g id="svg_180" transform="translate(840, 360) scale(0.4)">
     <g id="svg_181" fill=" rgb(256, 256, 256)">
      <rect id="svg_182" x="1777.5" y="62.5" height="100" width="100"/>
     </g>
    </g>
    <g id="svg_183" transform="translate(920, 360) scale(0.08)">
     <g id="svg_184" fill=" rgb(256, 256, 256)">
      <path id="svg_185" d="m9137.5,312.5c138.077,0 250,111.93 250,250c0,138.077 -111.923,250 -250,250c-138.07,0 -250,-111.923 -250,-250c0,-138.07 111.93,-250 250,-250z"/>
     </g>
    </g>
    <g id="svg_186" transform="translate(0, 400) scale(2.85714)">
     <g id="svg_187" fill=" rgb(256, 256, 256)">
      <path id="svg_188" d="m262.849,8.749l0,14l-13.97,0l-0.029,0l0,-3.431c0,-5.839 6.267,-10.569 13.999,-10.569z"/>
     </g>
    </g>
    <g id="svg_189" transform="translate(40, 400) scale(2.85714)">
     <g id="svg_190" fill=" rgb(256, 256, 256)">
      <path id="svg_191" d="m262.849,22.749l-13.999,0l0,-13.971l0,-0.029l3.43,0c5.839,0 10.569,6.268 10.569,14z"/>
     </g>
    </g>
    <g id="svg_192" transform="translate(120, 400) scale(0.08)">
     <g id="svg_193" fill=" rgb(256, 256, 256)">
      <path id="svg_194" d="m9137.5,312.5c138.077,0 250,111.93 250,250c0,138.077 -111.923,250 -250,250c-138.07,0 -250,-111.923 -250,-250c0,-138.07 111.93,-250 250,-250z"/>
     </g>
    </g>
    <g id="svg_195" transform="translate(200, 400) scale(2.85714)">
     <g id="svg_196" fill=" rgb(256, 256, 256)">
      <path id="svg_197" d="m262.849,8.749l0,14l-13.97,0l-0.029,0l0,-3.431c0,-5.839 6.267,-10.569 13.999,-10.569z"/>
     </g>
    </g>
    <g id="svg_198" transform="translate(240, 400) scale(2.85714)">
     <g id="svg_199" fill=" rgb(256, 256, 256)">
      <path id="svg_200" d="m248.85,22.75l0,-14c0,0 9.15,4.38 14,0.55c0,0 0.24,13.45 -14,13.45z"/>
     </g>
    </g>
    <g id="svg_201" transform="translate(480, 400) scale(2.85714)">
     <g id="svg_202" fill=" rgb(256, 256, 256)">
      <path id="svg_203" d="m262.85,22.75l-14,0c0,0 4.38,-9.15 0.55,-14c0,0 13.45,-0.24 13.45,14z"/>
     </g>
    </g>
    <g id="svg_204" transform="translate(600, 400) scale(2.85714)">
     <g id="svg_205" fill=" rgb(256, 256, 256)">
      <path id="svg_206" d="m248.85,8.749l14,0l0,13.97l0,0.029l-3.431,0.001c-5.838,0 -10.569,-6.268 -10.569,-14z"/>
     </g>
    </g>
    <g id="svg_207" transform="translate(640, 400) scale(0.4)">
     <g id="svg_208" fill=" rgb(256, 256, 256)">
      <rect id="svg_209" x="1777.5" y="62.5" height="100" width="100"/>
     </g>
    </g>
    <g id="svg_210" transform="translate(680, 400) scale(2.85714)">
     <g id="svg_211" fill=" rgb(256, 256, 256)">
      <path id="svg_212" d="m248.85,22.75l0,-14c0,0 9.15,4.38 14,0.55c0,0 0.24,13.45 -14,13.45z"/>
     </g>
    </g>
    <g id="svg_213" transform="translate(800, 400) scale(2.85714)">
     <g id="svg_214" fill=" rgb(256, 256, 256)">
      <path id="svg_215" d="m248.85,8.749l14,0l0,13.97l0,0.029l-3.431,0.001c-5.838,0 -10.569,-6.268 -10.569,-14z"/>
     </g>
    </g>
    <g id="svg_216" transform="translate(840, 400) scale(0.4)">
     <g id="svg_217" fill=" rgb(256, 256, 256)">
      <rect id="svg_218" x="1777.5" y="62.5" height="100" width="100"/>
     </g>
    </g>
    <g id="svg_219" transform="translate(880, 400) scale(2.85714)">
     <g id="svg_220" fill=" rgb(256, 256, 256)">
      <path id="svg_221" d="m262.849,22.749l-13.999,0l0,-13.971l0,-0.029l3.43,0c5.839,0 10.569,6.268 10.569,14z"/>
     </g>
    </g>
    <g id="svg_222" transform="translate(0, 440) scale(2.85714)">
     <g id="svg_223" fill=" rgb(256, 256, 256)">
      <path id="svg_224" d="m248.85,8.749l14,0l0,13.97l0,0.029l-3.431,0.001c-5.838,0 -10.569,-6.268 -10.569,-14z"/>
     </g>
    </g>
    <g id="svg_225" transform="translate(40, 440) scale(2.85714)">
     <g id="svg_226" fill=" rgb(256, 256, 256)">
      <path id="svg_227" d="m248.85,22.75l0,-14l13.971,0l0.029,0l0,3.43c0,5.84 -6.268,10.57 -14,10.57z"/>
     </g>
    </g>
    <g id="svg_228" transform="translate(200, 440) scale(2.85714)">
     <g id="svg_229" fill=" rgb(256, 256, 256)">
      <path id="svg_230" d="m248.849,8.75l14,0c0,0 -4.381,9.151 -0.551,14c0,0 -13.449,0.24 -13.449,-14z"/>
     </g>
    </g>
    <g id="svg_231" transform="translate(280, 440) scale(2.85714)">
     <g id="svg_232" fill=" rgb(256, 256, 256)">
      <path id="svg_233" d="m262.849,8.75l0,14c0,0 -9.151,-4.381 -14,-0.551c0,0 -0.241,-13.449 14,-13.449z"/>
     </g>
    </g>
    <g id="svg_234" transform="translate(320, 440) scale(2.85714)">
     <g id="svg_235" fill=" rgb(256, 256, 256)">
      <path id="svg_236" d="m248.85,22.75l0,-14c0,0 9.15,4.38 14,0.55c0,0 0.24,13.45 -14,13.45z"/>
     </g>
    </g>
    <g id="svg_237" transform="translate(400, 440) scale(0.08)">
     <g id="svg_238" fill=" rgb(256, 256, 256)">
      <path id="svg_239" d="m9137.5,312.5c138.077,0 250,111.93 250,250c0,138.077 -111.923,250 -250,250c-138.07,0 -250,-111.923 -250,-250c0,-138.07 111.93,-250 250,-250z"/>
     </g>
    </g>
    <g id="svg_240" transform="translate(480, 440) scale(2.85714)">
     <g id="svg_241" fill=" rgb(256, 256, 256)">
      <path id="svg_242" d="m248.849,8.75l14,0c0,0 -4.381,9.151 -0.551,14c0,0 -13.449,0.24 -13.449,-14z"/>
     </g>
    </g>
    <g id="svg_243" transform="translate(560, 440) scale(2.85714)">
     <g id="svg_244" fill=" rgb(256, 256, 256)">
      <path id="svg_245" d="m262.85,22.75l-14,0c0,0 4.38,-9.15 0.55,-14c0,0 13.45,-0.24 13.45,14z"/>
     </g>
    </g>
    <g id="svg_246" transform="translate(760, 440) scale(0.08)">
     <g id="svg_247" fill=" rgb(256, 256, 256)">
      <path id="svg_248" d="m9137.5,312.5c138.077,0 250,111.93 250,250c0,138.077 -111.923,250 -250,250c-138.07,0 -250,-111.923 -250,-250c0,-138.07 111.93,-250 250,-250z"/>
     </g>
    </g>
    <g id="svg_249" transform="translate(880, 440) scale(0.4)">
     <g id="svg_250" fill=" rgb(256, 256, 256)">
      <rect id="svg_251" x="1777.5" y="62.5" height="100" width="100"/>
     </g>
    </g>
    <g id="svg_252" transform="translate(920, 440) scale(2.85714)">
     <g id="svg_253" fill=" rgb(256, 256, 256)">
      <path id="svg_254" d="m262.849,22.749l-13.999,0l0,-13.971l0,-0.029l3.43,0c5.839,0 10.569,6.268 10.569,14z"/>
     </g>
    </g>
    <g id="svg_255" transform="translate(120, 480) scale(2.85714)">
     <g id="svg_256" fill=" rgb(256, 256, 256)">
      <path id="svg_257" d="m262.85,22.75l-14,0c0,0 4.38,-9.15 0.55,-14c0,0 13.45,-0.24 13.45,14z"/>
     </g>
    </g>
    <g id="svg_258" transform="translate(240, 480) scale(0.08)">
     <g id="svg_259" fill=" rgb(256, 256, 256)">
      <path id="svg_260" d="m9137.5,312.5c138.077,0 250,111.93 250,250c0,138.077 -111.923,250 -250,250c-138.07,0 -250,-111.923 -250,-250c0,-138.07 111.93,-250 250,-250z"/>
     </g>
    </g>
    <g id="svg_261" transform="translate(440, 480) scale(0.08)">
     <g id="svg_262" fill=" rgb(256, 256, 256)">
      <path id="svg_263" d="m9137.5,312.5c138.077,0 250,111.93 250,250c0,138.077 -111.923,250 -250,250c-138.07,0 -250,-111.923 -250,-250c0,-138.07 111.93,-250 250,-250z"/>
     </g>
    </g>
    <g id="svg_264" transform="translate(520, 480) scale(2.85714)">
     <g id="svg_265" fill=" rgb(256, 256, 256)">
      <path id="svg_266" d="m262.849,8.75l0,14c0,0 -9.151,-4.381 -14,-0.551c0,0 -0.241,-13.449 14,-13.449z"/>
     </g>
    </g>
    <g id="svg_267" transform="translate(560, 480) scale(0.4)">
     <g id="svg_268" fill=" rgb(256, 256, 256)">
      <rect id="svg_269" x="1777.5" y="62.5" height="100" width="100"/>
     </g>
    </g>
    <g id="svg_270" transform="translate(600, 480) scale(2.85714)">
     <g id="svg_271" fill=" rgb(256, 256, 256)">
      <path id="svg_272" d="m262.849,22.749l-13.999,0l0,-13.971l0,-0.029l3.43,0c5.839,0 10.569,6.268 10.569,14z"/>
     </g>
    </g>
    <g id="svg_273" transform="translate(680, 480) scale(2.85714)">
     <g id="svg_274" fill=" rgb(256, 256, 256)">
      <path id="svg_275" d="m262.849,8.75l0,14c0,0 -9.151,-4.381 -14,-0.551c0,0 -0.241,-13.449 14,-13.449z"/>
     </g>
    </g>
    <g id="svg_276" transform="translate(720, 480) scale(2.85714)">
     <g id="svg_277" fill=" rgb(256, 256, 256)">
      <path id="svg_278" d="m248.85,22.75l0,-14c0,0 9.15,4.38 14,0.55c0,0 0.24,13.45 -14,13.45z"/>
     </g>
    </g>
    <g id="svg_279" transform="translate(840, 480) scale(2.85714)">
     <g id="svg_280" fill=" rgb(256, 256, 256)">
      <path id="svg_281" d="m262.849,8.75l0,14c0,0 -9.151,-4.381 -14,-0.551c0,0 -0.241,-13.449 14,-13.449z"/>
     </g>
    </g>
    <g id="svg_282" transform="translate(880, 480) scale(0.4)">
     <g id="svg_283" fill=" rgb(256, 256, 256)">
      <rect id="svg_284" x="1777.5" y="62.5" height="100" width="100"/>
     </g>
    </g>
    <g id="svg_285" transform="translate(920, 480) scale(0.4)">
     <g id="svg_286" fill=" rgb(256, 256, 256)">
      <rect id="svg_287" x="1777.5" y="62.5" height="100" width="100"/>
     </g>
    </g>
    <g id="svg_288" transform="translate(960, 480) scale(2.85714)">
     <g id="svg_289" fill=" rgb(256, 256, 256)">
      <path id="svg_290" d="m248.85,22.75l0,-14c0,0 9.15,4.38 14,0.55c0,0 0.24,13.45 -14,13.45z"/>
     </g>
    </g>
    <g id="svg_291" transform="translate(0, 520) scale(0.08)">
     <g id="svg_292" fill=" rgb(256, 256, 256)">
      <path id="svg_293" d="m9137.5,312.5c138.077,0 250,111.93 250,250c0,138.077 -111.923,250 -250,250c-138.07,0 -250,-111.923 -250,-250c0,-138.07 111.93,-250 250,-250z"/>
     </g>
    </g>
    <g id="svg_294" transform="translate(120, 520) scale(2.85714)">
     <g id="svg_295" fill=" rgb(256, 256, 256)">
      <path id="svg_296" d="m248.849,8.75l14,0c0,0 -4.381,9.151 -0.551,14c0,0 -13.449,0.24 -13.449,-14z"/>
     </g>
    </g>
    <g id="svg_297" transform="translate(200, 520) scale(0.08)">
     <g id="svg_298" fill=" rgb(256, 256, 256)">
      <path id="svg_299" d="m9137.5,312.5c138.077,0 250,111.93 250,250c0,138.077 -111.923,250 -250,250c-138.07,0 -250,-111.923 -250,-250c0,-138.07 111.93,-250 250,-250z"/>
     </g>
    </g>
    <g id="svg_300" transform="translate(320, 520) scale(2.85714)">
     <g id="svg_301" fill=" rgb(256, 256, 256)">
      <path id="svg_302" d="m262.849,8.75l0,14c0,0 -9.151,-4.381 -14,-0.551c0,0 -0.241,-13.449 14,-13.449z"/>
     </g>
    </g>
    <g id="svg_303" transform="translate(360, 520) scale(2.85714)">
     <g id="svg_304" fill=" rgb(256, 256, 256)">
      <path id="svg_305" d="m248.85,22.75l0,-14c0,0 9.15,4.38 14,0.55c0,0 0.24,13.45 -14,13.45z"/>
     </g>
    </g>
    <g id="svg_306" transform="translate(480, 520) scale(2.85714)">
     <g id="svg_307" fill=" rgb(256, 256, 256)">
      <path id="svg_308" d="m262.85,22.75l-14,0c0,0 4.38,-9.15 0.55,-14c0,0 13.45,-0.24 13.45,14z"/>
     </g>
    </g>
    <g id="svg_309" transform="translate(600, 520) scale(0.4)">
     <g id="svg_310" fill=" rgb(256, 256, 256)">
      <rect id="svg_311" x="1777.5" y="62.5" height="100" width="100"/>
     </g>
    </g>
    <g id="svg_312" transform="translate(800, 520) scale(2.85714)">
     <g id="svg_313" fill=" rgb(256, 256, 256)">
      <path id="svg_314" d="m262.85,22.75l-14,0c0,0 4.38,-9.15 0.55,-14c0,0 13.45,-0.24 13.45,14z"/>
     </g>
    </g>
    <g id="svg_315" transform="translate(920, 520) scale(2.85714)">
     <g id="svg_316" fill=" rgb(256, 256, 256)">
      <path id="svg_317" d="m248.849,8.75l14,0c0,0 -4.381,9.151 -0.551,14c0,0 -13.449,0.24 -13.449,-14z"/>
     </g>
    </g>
    <g id="svg_318" transform="translate(80, 560) scale(2.85714)">
     <g id="svg_319" fill=" rgb(256, 256, 256)">
      <path id="svg_320" d="m262.85,22.75l-14,0c0,0 4.38,-9.15 0.55,-14c0,0 13.45,-0.24 13.45,14z"/>
     </g>
    </g>
    <g id="svg_321" transform="translate(160, 560) scale(0.08)">
     <g id="svg_322" fill=" rgb(256, 256, 256)">
      <path id="svg_323" d="m9137.5,312.5c138.077,0 250,111.93 250,250c0,138.077 -111.923,250 -250,250c-138.07,0 -250,-111.923 -250,-250c0,-138.07 111.93,-250 250,-250z"/>
     </g>
    </g>
    <g id="svg_324" transform="translate(240, 560) scale(2.85714)">
     <g id="svg_325" fill=" rgb(256, 256, 256)">
      <path id="svg_326" d="m262.849,8.75l0,14c0,0 -9.151,-4.381 -14,-0.551c0,0 -0.241,-13.449 14,-13.449z"/>
     </g>
    </g>
    <g id="svg_327" transform="translate(280, 560) scale(2.85714)">
     <g id="svg_328" fill=" rgb(256, 256, 256)">
      <path id="svg_329" d="m248.85,22.75l0,-14c0,0 9.15,4.38 14,0.55c0,0 0.24,13.45 -14,13.45z"/>
     </g>
    </g>
    <g id="svg_330" transform="translate(400, 560) scale(2.85714)">
     <g id="svg_331" fill=" rgb(256, 256, 256)">
      <path id="svg_332" d="m262.849,8.75l0,14c0,0 -9.151,-4.381 -14,-0.551c0,0 -0.241,-13.449 14,-13.449z"/>
     </g>
    </g>
    <g id="svg_333" transform="translate(440, 560) scale(0.4)">
     <g id="svg_334" fill=" rgb(256, 256, 256)">
      <rect id="svg_335" x="1777.5" y="62.5" height="100" width="100"/>
     </g>
    </g>
    <g id="svg_336" transform="translate(480, 560) scale(0.4)">
     <g id="svg_337" fill=" rgb(256, 256, 256)">
      <rect id="svg_338" x="1777.5" y="62.5" height="100" width="100"/>
     </g>
    </g>
    <g id="svg_339" transform="translate(520, 560) scale(0.4)">
     <g id="svg_340" fill=" rgb(256, 256, 256)">
      <rect id="svg_341" x="1777.5" y="62.5" height="100" width="100"/>
     </g>
    </g>
    <g id="svg_342" transform="translate(560, 560) scale(0.4)">
     <g id="svg_343" fill=" rgb(256, 256, 256)">
      <rect id="svg_344" x="1777.5" y="62.5" height="100" width="100"/>
     </g>
    </g>
    <g id="svg_345" transform="translate(600, 560) scale(0.4)">
     <g id="svg_346" fill=" rgb(256, 256, 256)">
      <rect id="svg_347" x="1777.5" y="62.5" height="100" width="100"/>
     </g>
    </g>
    <g id="svg_348" transform="translate(640, 560) scale(0.4)">
     <g id="svg_349" fill=" rgb(256, 256, 256)">
      <rect id="svg_350" x="1777.5" y="62.5" height="100" width="100"/>
     </g>
    </g>
    <g id="svg_351" transform="translate(680, 560) scale(0.4)">
     <g id="svg_352" fill=" rgb(256, 256, 256)">
      <rect id="svg_353" x="1777.5" y="62.5" height="100" width="100"/>
     </g>
    </g>
    <g id="svg_354" transform="translate(720, 560) scale(0.4)">
     <g id="svg_355" fill=" rgb(256, 256, 256)">
      <rect id="svg_356" x="1777.5" y="62.5" height="100" width="100"/>
     </g>
    </g>
    <g id="svg_357" transform="translate(760, 560) scale(0.4)">
     <g id="svg_358" fill=" rgb(256, 256, 256)">
      <rect id="svg_359" x="1777.5" y="62.5" height="100" width="100"/>
     </g>
    </g>
    <g id="svg_360" transform="translate(800, 560) scale(0.4)">
     <g id="svg_361" fill=" rgb(256, 256, 256)">
      <rect id="svg_362" x="1777.5" y="62.5" height="100" width="100"/>
     </g>
    </g>
    <g id="svg_363" transform="translate(840, 560) scale(0.4)">
     <g id="svg_364" fill=" rgb(256, 256, 256)">
      <rect id="svg_365" x="1777.5" y="62.5" height="100" width="100"/>
     </g>
    </g>
    <g id="svg_366" transform="translate(880, 560) scale(2.85714)">
     <g id="svg_367" fill=" rgb(256, 256, 256)">
      <path id="svg_368" d="m262.849,22.749l-13.999,0l0,-13.971l0,-0.029l3.43,0c5.839,0 10.569,6.268 10.569,14z"/>
     </g>
    </g>
    <g id="svg_369" transform="translate(80, 600) scale(0.4)">
     <g id="svg_370" fill=" rgb(256, 256, 256)">
      <rect id="svg_371" x="1777.5" y="62.5" height="100" width="100"/>
     </g>
    </g>
    <g id="svg_372" transform="translate(120, 600) scale(2.85714)">
     <g id="svg_373" fill=" rgb(256, 256, 256)">
      <path id="svg_374" d="m262.849,22.749l-13.999,0l0,-13.971l0,-0.029l3.43,0c5.839,0 10.569,6.268 10.569,14z"/>
     </g>
    </g>
    <g id="svg_375" transform="translate(200, 600) scale(0.08)">
     <g id="svg_376" fill=" rgb(256, 256, 256)">
      <path id="svg_377" d="m9137.5,312.5c138.077,0 250,111.93 250,250c0,138.077 -111.923,250 -250,250c-138.07,0 -250,-111.923 -250,-250c0,-138.07 111.93,-250 250,-250z"/>
     </g>
    </g>
    <g id="svg_378" transform="translate(320, 600) scale(0.08)">
     <g id="svg_379" fill=" rgb(256, 256, 256)">
      <path id="svg_380" d="m9137.5,312.5c138.077,0 250,111.93 250,250c0,138.077 -111.923,250 -250,250c-138.07,0 -250,-111.923 -250,-250c0,-138.07 111.93,-250 250,-250z"/>
     </g>
    </g>
    <g id="svg_381" transform="translate(440, 600) scale(2.85714)">
     <g id="svg_382" fill=" rgb(256, 256, 256)">
      <path id="svg_383" d="m248.849,8.75l14,0c0,0 -4.381,9.151 -0.551,14c0,0 -13.449,0.24 -13.449,-14z"/>
     </g>
    </g>
    <g id="svg_384" transform="translate(520, 600) scale(0.4)">
     <g id="svg_385" fill=" rgb(256, 256, 256)">
      <rect id="svg_386" x="1777.5" y="62.5" height="100" width="100"/>
     </g>
    </g>
    <g id="svg_387" transform="translate(720, 600) scale(0.4)">
     <g id="svg_388" fill=" rgb(256, 256, 256)">
      <rect id="svg_389" x="1777.5" y="62.5" height="100" width="100"/>
     </g>
    </g>
    <g id="svg_390" transform="translate(760, 600) scale(0.4)">
     <g id="svg_391" fill=" rgb(256, 256, 256)">
      <rect id="svg_392" x="1777.5" y="62.5" height="100" width="100"/>
     </g>
    </g>
    <g id="svg_393" transform="translate(800, 600) scale(0.4)">
     <g id="svg_394" fill=" rgb(256, 256, 256)">
      <rect id="svg_395" x="1777.5" y="62.5" height="100" width="100"/>
     </g>
    </g>
    <g id="svg_396" transform="translate(880, 600) scale(0.4)">
     <g id="svg_397" fill=" rgb(256, 256, 256)">
      <rect id="svg_398" x="1777.5" y="62.5" height="100" width="100"/>
     </g>
    </g>
    <g id="svg_399" transform="translate(920, 600) scale(2.85714)">
     <g id="svg_400" fill=" rgb(256, 256, 256)">
      <path id="svg_401" d="m248.85,22.75l0,-14c0,0 9.15,4.38 14,0.55c0,0 0.24,13.45 -14,13.45z"/>
     </g>
    </g>
    <g id="svg_402" transform="translate(0, 640) scale(2.85714)">
     <g id="svg_403" fill=" rgb(256, 256, 256)">
      <path id="svg_404" d="m262.849,8.75l0,14c0,0 -9.151,-4.381 -14,-0.551c0,0 -0.241,-13.449 14,-13.449z"/>
     </g>
    </g>
    <g id="svg_405" transform="translate(40, 640) scale(0.4)">
     <g id="svg_406" fill=" rgb(256, 256, 256)">
      <rect id="svg_407" x="1777.5" y="62.5" height="100" width="100"/>
     </g>
    </g>
    <g id="svg_408" transform="translate(80, 640) scale(0.4)">
     <g id="svg_409" fill=" rgb(256, 256, 256)">
      <rect id="svg_410" x="1777.5" y="62.5" height="100" width="100"/>
     </g>
    </g>
    <g id="svg_411" transform="translate(120, 640) scale(0.4)">
     <g id="svg_412" fill=" rgb(256, 256, 256)">
      <rect id="svg_413" x="1777.5" y="62.5" height="100" width="100"/>
     </g>
    </g>
    <g id="svg_414" transform="translate(160, 640) scale(2.85714)">
     <g id="svg_415" fill=" rgb(256, 256, 256)">
      <path id="svg_416" d="m248.85,22.75l0,-14c0,0 9.15,4.38 14,0.55c0,0 0.24,13.45 -14,13.45z"/>
     </g>
    </g>
    <g id="svg_417" transform="translate(240, 640) scale(2.85714)">
     <g id="svg_418" fill=" rgb(256, 256, 256)">
      <path id="svg_419" d="m262.849,8.75l0,14c0,0 -9.151,-4.381 -14,-0.551c0,0 -0.241,-13.449 14,-13.449z"/>
     </g>
    </g>
    <g id="svg_420" transform="translate(280, 640) scale(2.85714)">
     <g id="svg_421" fill=" rgb(256, 256, 256)">
      <path id="svg_422" d="m248.85,22.75l0,-14c0,0 9.15,4.38 14,0.55c0,0 0.24,13.45 -14,13.45z"/>
     </g>
    </g>
    <g id="svg_423" transform="translate(400, 640) scale(2.85714)">
     <g id="svg_424" fill=" rgb(256, 256, 256)">
      <path id="svg_425" d="m262.85,22.75l-14,0c0,0 4.38,-9.15 0.55,-14c0,0 13.45,-0.24 13.45,14z"/>
     </g>
    </g>
    <g id="svg_426" transform="translate(480, 640) scale(2.85714)">
     <g id="svg_427" fill=" rgb(256, 256, 256)">
      <path id="svg_428" d="m262.849,8.75l0,14c0,0 -9.151,-4.381 -14,-0.551c0,0 -0.241,-13.449 14,-13.449z"/>
     </g>
    </g>
    <g id="svg_429" transform="translate(520, 640) scale(0.4)">
     <g id="svg_430" fill=" rgb(256, 256, 256)">
      <rect id="svg_431" x="1777.5" y="62.5" height="100" width="100"/>
     </g>
    </g>
    <g id="svg_432" transform="translate(600, 640) scale(2.85714)">
     <g id="svg_433" fill=" rgb(256, 256, 256)">
      <path id="svg_434" d="m262.849,8.75l0,14c0,0 -9.151,-4.381 -14,-0.551c0,0 -0.241,-13.449 14,-13.449z"/>
     </g>
    </g>
    <g id="svg_435" transform="translate(640, 640) scale(0.4)">
     <g id="svg_436" fill=" rgb(256, 256, 256)">
      <rect id="svg_437" x="1777.5" y="62.5" height="100" width="100"/>
     </g>
    </g>
    <g id="svg_438" transform="translate(680, 640) scale(0.4)">
     <g id="svg_439" fill=" rgb(256, 256, 256)">
      <rect id="svg_440" x="1777.5" y="62.5" height="100" width="100"/>
     </g>
    </g>
    <g id="svg_441" transform="translate(720, 640) scale(0.4)">
     <g id="svg_442" fill=" rgb(256, 256, 256)">
      <rect id="svg_443" x="1777.5" y="62.5" height="100" width="100"/>
     </g>
    </g>
    <g id="svg_444" transform="translate(760, 640) scale(0.4)">
     <g id="svg_445" fill=" rgb(256, 256, 256)">
      <rect id="svg_446" x="1777.5" y="62.5" height="100" width="100"/>
     </g>
    </g>
    <g id="svg_447" transform="translate(800, 640) scale(0.4)">
     <g id="svg_448" fill=" rgb(256, 256, 256)">
      <rect id="svg_449" x="1777.5" y="62.5" height="100" width="100"/>
     </g>
    </g>
    <g id="svg_450" transform="translate(840, 640) scale(0.4)">
     <g id="svg_451" fill=" rgb(256, 256, 256)">
      <rect id="svg_452" x="1777.5" y="62.5" height="100" width="100"/>
     </g>
    </g>
    <g id="svg_453" transform="translate(880, 640) scale(2.85714)">
     <g id="svg_454" fill=" rgb(256, 256, 256)">
      <path id="svg_455" d="m248.85,22.75l0,-14l13.971,0l0.029,0l0,3.43c0,5.84 -6.268,10.57 -14,10.57z"/>
     </g>
    </g>
    <g id="svg_456" transform="translate(320, 680) scale(2.85714)">
     <g id="svg_457" fill=" rgb(256, 256, 256)">
      <path id="svg_458" d="m262.849,8.749l0,14l-13.97,0l-0.029,0l0,-3.431c0,-5.839 6.267,-10.569 13.999,-10.569z"/>
     </g>
    </g>
    <g id="svg_459" transform="translate(360, 680) scale(0.4)">
     <g id="svg_460" fill=" rgb(256, 256, 256)">
      <rect id="svg_461" x="1777.5" y="62.5" height="100" width="100"/>
     </g>
    </g>
    <g id="svg_462" transform="translate(400, 680) scale(2.85714)">
     <g id="svg_463" fill=" rgb(256, 256, 256)">
      <path id="svg_464" d="m248.85,22.75l0,-14l13.971,0l0.029,0l0,3.43c0,5.84 -6.268,10.57 -14,10.57z"/>
     </g>
    </g>
    <g id="svg_465" transform="translate(520, 680) scale(2.85714)">
     <g id="svg_466" fill=" rgb(256, 256, 256)">
      <path id="svg_467" d="m248.85,8.749l14,0l0,13.97l0,0.029l-3.431,0.001c-5.838,0 -10.569,-6.268 -10.569,-14z"/>
     </g>
    </g>
    <g id="svg_468" transform="translate(560, 680) scale(2.85714)">
     <g id="svg_469" fill=" rgb(256, 256, 256)">
      <path id="svg_470" d="m248.85,22.75l0,-14c0,0 9.15,4.38 14,0.55c0,0 0.24,13.45 -14,13.45z"/>
     </g>
    </g>
    <g id="svg_471" transform="translate(640, 680) scale(0.4)">
     <g id="svg_472" fill=" rgb(256, 256, 256)">
      <rect id="svg_473" x="1777.5" y="62.5" height="100" width="100"/>
     </g>
    </g>
    <g id="svg_474" transform="translate(800, 680) scale(0.4)">
     <g id="svg_475" fill=" rgb(256, 256, 256)">
      <rect id="svg_476" x="1777.5" y="62.5" height="100" width="100"/>
     </g>
    </g>
    <g id="svg_477" transform="translate(320, 720) scale(2.85714)">
     <g id="svg_478" fill=" rgb(256, 256, 256)">
      <path id="svg_479" d="m248.85,8.749l14,0l0,13.97l0,0.029l-3.431,0.001c-5.838,0 -10.569,-6.268 -10.569,-14z"/>
     </g>
    </g>
    <g id="svg_480" transform="translate(360, 720) scale(2.85714)">
     <g id="svg_481" fill=" rgb(256, 256, 256)">
      <path id="svg_482" d="m248.85,22.75l0,-14l13.971,0l0.029,0l0,3.43c0,5.84 -6.268,10.57 -14,10.57z"/>
     </g>
    </g>
    <g id="svg_483" transform="translate(640, 720) scale(0.4)">
     <g id="svg_484" fill=" rgb(256, 256, 256)">
      <rect id="svg_485" x="1777.5" y="62.5" height="100" width="100"/>
     </g>
    </g>
    <g id="svg_486" transform="translate(720, 720) scale(0.08)">
     <g id="svg_487" fill=" rgb(256, 256, 256)">
      <path id="svg_488" d="m9137.5,312.5c138.077,0 250,111.93 250,250c0,138.077 -111.923,250 -250,250c-138.07,0 -250,-111.923 -250,-250c0,-138.07 111.93,-250 250,-250z"/>
     </g>
    </g>
    <g id="svg_489" transform="translate(800, 720) scale(0.4)">
     <g id="svg_490" fill=" rgb(256, 256, 256)">
      <rect id="svg_491" x="1777.5" y="62.5" height="100" width="100"/>
     </g>
    </g>
    <g id="svg_492" transform="translate(400, 760) scale(0.08)">
     <g id="svg_493" fill=" rgb(256, 256, 256)">
      <path id="svg_494" d="m9137.5,312.5c138.077,0 250,111.93 250,250c0,138.077 -111.923,250 -250,250c-138.07,0 -250,-111.923 -250,-250c0,-138.07 111.93,-250 250,-250z"/>
     </g>
    </g>
    <g id="svg_495" transform="translate(480, 760) scale(0.08)">
     <g id="svg_496" fill=" rgb(256, 256, 256)">
      <path id="svg_497" d="m9137.5,312.5c138.077,0 250,111.93 250,250c0,138.077 -111.923,250 -250,250c-138.07,0 -250,-111.923 -250,-250c0,-138.07 111.93,-250 250,-250z"/>
     </g>
    </g>
    <g id="svg_498" transform="translate(560, 760) scale(2.85714)">
     <g id="svg_499" fill=" rgb(256, 256, 256)">
      <path id="svg_500" d="m262.85,22.75l-14,0c0,0 4.38,-9.15 0.55,-14c0,0 13.45,-0.24 13.45,14z"/>
     </g>
    </g>
    <g id="svg_501" transform="translate(640, 760) scale(0.4)">
     <g id="svg_502" fill=" rgb(256, 256, 256)">
      <rect id="svg_503" x="1777.5" y="62.5" height="100" width="100"/>
     </g>
    </g>
    <g id="svg_504" transform="translate(800, 760) scale(0.4)">
     <g id="svg_505" fill=" rgb(256, 256, 256)">
      <rect id="svg_506" x="1777.5" y="62.5" height="100" width="100"/>
     </g>
    </g>
    <g id="svg_507" transform="translate(840, 760) scale(0.4)">
     <g id="svg_508" fill=" rgb(256, 256, 256)">
      <rect id="svg_509" x="1777.5" y="62.5" height="100" width="100"/>
     </g>
    </g>
    <g id="svg_510" transform="translate(880, 760) scale(0.4)">
     <g id="svg_511" fill=" rgb(256, 256, 256)">
      <rect id="svg_512" x="1777.5" y="62.5" height="100" width="100"/>
     </g>
    </g>
    <g id="svg_513" transform="translate(920, 760) scale(0.4)">
     <g id="svg_514" fill=" rgb(256, 256, 256)">
      <rect id="svg_515" x="1777.5" y="62.5" height="100" width="100"/>
     </g>
    </g>
    <g id="svg_516" transform="translate(960, 760) scale(2.85714)">
     <g id="svg_517" fill=" rgb(256, 256, 256)">
      <path id="svg_518" d="m262.849,22.749l-13.999,0l0,-13.971l0,-0.029l3.43,0c5.839,0 10.569,6.268 10.569,14z"/>
     </g>
    </g>
    <g id="svg_519" transform="translate(320, 800) scale(2.85714)">
     <g id="svg_520" fill=" rgb(256, 256, 256)">
      <path id="svg_521" d="m262.849,8.75l0,14c0,0 -9.151,-4.381 -14,-0.551c0,0 -0.241,-13.449 14,-13.449z"/>
     </g>
    </g>
    <g id="svg_522" transform="translate(360, 800) scale(2.85714)">
     <g id="svg_523" fill=" rgb(256, 256, 256)">
      <path id="svg_524" d="m262.849,22.749l-13.999,0l0,-13.971l0,-0.029l3.43,0c5.839,0 10.569,6.268 10.569,14z"/>
     </g>
    </g>
    <g id="svg_525" transform="translate(440, 800) scale(0.08)">
     <g id="svg_526" fill=" rgb(256, 256, 256)">
      <path id="svg_527" d="m9137.5,312.5c138.077,0 250,111.93 250,250c0,138.077 -111.923,250 -250,250c-138.07,0 -250,-111.923 -250,-250c0,-138.07 111.93,-250 250,-250z"/>
     </g>
    </g>
    <g id="svg_528" transform="translate(520, 800) scale(2.85714)">
     <g id="svg_529" fill=" rgb(256, 256, 256)">
      <path id="svg_530" d="m262.849,8.75l0,14c0,0 -9.151,-4.381 -14,-0.551c0,0 -0.241,-13.449 14,-13.449z"/>
     </g>
    </g>
    <g id="svg_531" transform="translate(560, 800) scale(2.85714)">
     <g id="svg_532" fill=" rgb(256, 256, 256)">
      <path id="svg_533" d="m248.85,22.75l0,-14l13.971,0l0.029,0l0,3.43c0,5.84 -6.268,10.57 -14,10.57z"/>
     </g>
    </g>
    <g id="svg_534" transform="translate(640, 800) scale(2.85714)">
     <g id="svg_535" fill=" rgb(256, 256, 256)">
      <path id="svg_536" d="m248.85,8.749l14,0l0,13.97l0,0.029l-3.431,0.001c-5.838,0 -10.569,-6.268 -10.569,-14z"/>
     </g>
    </g>
    <g id="svg_537" transform="translate(680, 800) scale(0.4)">
     <g id="svg_538" fill=" rgb(256, 256, 256)">
      <rect id="svg_539" x="1777.5" y="62.5" height="100" width="100"/>
     </g>
    </g>
    <g id="svg_540" transform="translate(720, 800) scale(0.4)">
     <g id="svg_541" fill=" rgb(256, 256, 256)">
      <rect id="svg_542" x="1777.5" y="62.5" height="100" width="100"/>
     </g>
    </g>
    <g id="svg_543" transform="translate(760, 800) scale(0.4)">
     <g id="svg_544" fill=" rgb(256, 256, 256)">
      <rect id="svg_545" x="1777.5" y="62.5" height="100" width="100"/>
     </g>
    </g>
    <g id="svg_546" transform="translate(800, 800) scale(0.4)">
     <g id="svg_547" fill=" rgb(256, 256, 256)">
      <rect id="svg_548" x="1777.5" y="62.5" height="100" width="100"/>
     </g>
    </g>
    <g id="svg_549" transform="translate(840, 800) scale(0.4)">
     <g id="svg_550" fill=" rgb(256, 256, 256)">
      <rect id="svg_551" x="1777.5" y="62.5" height="100" width="100"/>
     </g>
    </g>
    <g id="svg_552" transform="translate(880, 800) scale(0.4)">
     <g id="svg_553" fill=" rgb(256, 256, 256)">
      <rect id="svg_554" x="1777.5" y="62.5" height="100" width="100"/>
     </g>
    </g>
    <g id="svg_555" transform="translate(960, 800) scale(0.4)">
     <g id="svg_556" fill=" rgb(256, 256, 256)">
      <rect id="svg_557" x="1777.5" y="62.5" height="100" width="100"/>
     </g>
    </g>
    <g id="svg_558" transform="translate(360, 840) scale(0.4)">
     <g id="svg_559" fill=" rgb(256, 256, 256)">
      <rect id="svg_560" x="1777.5" y="62.5" height="100" width="100"/>
     </g>
    </g>
    <g id="svg_561" transform="translate(480, 840) scale(2.85714)">
     <g id="svg_562" fill=" rgb(256, 256, 256)">
      <path id="svg_563" d="m262.85,22.75l-14,0c0,0 4.38,-9.15 0.55,-14c0,0 13.45,-0.24 13.45,14z"/>
     </g>
    </g>
    <g id="svg_564" transform="translate(600, 840) scale(2.85714)">
     <g id="svg_565" fill=" rgb(256, 256, 256)">
      <path id="svg_566" d="m262.85,22.75l-14,0c0,0 4.38,-9.15 0.55,-14c0,0 13.45,-0.24 13.45,14z"/>
     </g>
    </g>
    <g id="svg_567" transform="translate(680, 840) scale(2.85714)">
     <g id="svg_568" fill=" rgb(256, 256, 256)">
      <path id="svg_569" d="m248.85,8.749l14,0l0,13.97l0,0.029l-3.431,0.001c-5.838,0 -10.569,-6.268 -10.569,-14z"/>
     </g>
    </g>
    <g id="svg_570" transform="translate(720, 840) scale(0.4)">
     <g id="svg_571" fill=" rgb(256, 256, 256)">
      <rect id="svg_572" x="1777.5" y="62.5" height="100" width="100"/>
     </g>
    </g>
    <g id="svg_573" transform="translate(760, 840) scale(2.85714)">
     <g id="svg_574" fill=" rgb(256, 256, 256)">
      <path id="svg_575" d="m248.85,22.75l0,-14l13.971,0l0.029,0l0,3.43c0,5.84 -6.268,10.57 -14,10.57z"/>
     </g>
    </g>
    <g id="svg_576" transform="translate(880, 840) scale(2.85714)">
     <g id="svg_577" fill=" rgb(256, 256, 256)">
      <path id="svg_578" d="m248.85,8.749l14,0l0,13.97l0,0.029l-3.431,0.001c-5.838,0 -10.569,-6.268 -10.569,-14z"/>
     </g>
    </g>
    <g id="svg_579" transform="translate(920, 840) scale(0.4)">
     <g id="svg_580" fill=" rgb(256, 256, 256)">
      <rect id="svg_581" x="1777.5" y="62.5" height="100" width="100"/>
     </g>
    </g>
    <g id="svg_582" transform="translate(960, 840) scale(2.85714)">
     <g id="svg_583" fill=" rgb(256, 256, 256)">
      <path id="svg_584" d="m248.85,22.75l0,-14l13.971,0l0.029,0l0,3.43c0,5.84 -6.268,10.57 -14,10.57z"/>
     </g>
    </g>
    <g id="svg_585" transform="translate(360, 880) scale(2.85714)">
     <g id="svg_586" fill=" rgb(256, 256, 256)">
      <path id="svg_587" d="m248.849,8.75l14,0c0,0 -4.381,9.151 -0.551,14c0,0 -13.449,0.24 -13.449,-14z"/>
     </g>
    </g>
    <g id="svg_588" transform="translate(440, 880) scale(2.85714)">
     <g id="svg_589" fill=" rgb(256, 256, 256)">
      <path id="svg_590" d="m262.849,8.749l0,14l-13.97,0l-0.029,0l0,-3.431c0,-5.839 6.267,-10.569 13.999,-10.569z"/>
     </g>
    </g>
    <g id="svg_591" transform="translate(480, 880) scale(0.4)">
     <g id="svg_592" fill=" rgb(256, 256, 256)">
      <rect id="svg_593" x="1777.5" y="62.5" height="100" width="100"/>
     </g>
    </g>
    <g id="svg_594" transform="translate(520, 880) scale(0.4)">
     <g id="svg_595" fill=" rgb(256, 256, 256)">
      <rect id="svg_596" x="1777.5" y="62.5" height="100" width="100"/>
     </g>
    </g>
    <g id="svg_597" transform="translate(560, 880) scale(0.4)">
     <g id="svg_598" fill=" rgb(256, 256, 256)">
      <rect id="svg_599" x="1777.5" y="62.5" height="100" width="100"/>
     </g>
    </g>
    <g id="svg_600" transform="translate(600, 880) scale(0.4)">
     <g id="svg_601" fill=" rgb(256, 256, 256)">
      <rect id="svg_602" x="1777.5" y="62.5" height="100" width="100"/>
     </g>
    </g>
    <g id="svg_603" transform="translate(720, 880) scale(0.4)">
     <g id="svg_604" fill=" rgb(256, 256, 256)">
      <rect id="svg_605" x="1777.5" y="62.5" height="100" width="100"/>
     </g>
    </g>
    <g id="svg_606" transform="translate(840, 880) scale(2.85714)">
     <g id="svg_607" fill=" rgb(256, 256, 256)">
      <path id="svg_608" d="m262.85,22.75l-14,0c0,0 4.38,-9.15 0.55,-14c0,0 13.45,-0.24 13.45,14z"/>
     </g>
    </g>
    <g id="svg_609" transform="translate(920, 880) scale(0.4)">
     <g id="svg_610" fill=" rgb(256, 256, 256)">
      <rect id="svg_611" x="1777.5" y="62.5" height="100" width="100"/>
     </g>
    </g>
    <g id="svg_612" transform="translate(400, 920) scale(2.85714)">
     <g id="svg_613" fill=" rgb(256, 256, 256)">
      <path id="svg_614" d="m262.849,8.75l0,14c0,0 -9.151,-4.381 -14,-0.551c0,0 -0.241,-13.449 14,-13.449z"/>
     </g>
    </g>
    <g id="svg_615" transform="translate(440, 920) scale(2.85714)">
     <g id="svg_616" fill=" rgb(256, 256, 256)">
      <path id="svg_617" d="m248.85,22.75l0,-14l13.971,0l0.029,0l0,3.43c0,5.84 -6.268,10.57 -14,10.57z"/>
     </g>
    </g>
    <g id="svg_618" transform="translate(520, 920) scale(0.4)">
     <g id="svg_619" fill=" rgb(256, 256, 256)">
      <rect id="svg_620" x="1777.5" y="62.5" height="100" width="100"/>
     </g>
    </g>
    <g id="svg_621" transform="translate(600, 920) scale(0.4)">
     <g id="svg_622" fill=" rgb(256, 256, 256)">
      <rect id="svg_623" x="1777.5" y="62.5" height="100" width="100"/>
     </g>
    </g>
    <g id="svg_624" transform="translate(680, 920) scale(2.85714)">
     <g id="svg_625" fill=" rgb(256, 256, 256)">
      <path id="svg_626" d="m262.849,8.75l0,14c0,0 -9.151,-4.381 -14,-0.551c0,0 -0.241,-13.449 14,-13.449z"/>
     </g>
    </g>
    <g id="svg_627" transform="translate(720, 920) scale(0.4)">
     <g id="svg_628" fill=" rgb(256, 256, 256)">
      <rect id="svg_629" x="1777.5" y="62.5" height="100" width="100"/>
     </g>
    </g>
    <g id="svg_630" transform="translate(760, 920) scale(0.4)">
     <g id="svg_631" fill=" rgb(256, 256, 256)">
      <rect id="svg_632" x="1777.5" y="62.5" height="100" width="100"/>
     </g>
    </g>
    <g id="svg_633" transform="translate(800, 920) scale(0.4)">
     <g id="svg_634" fill=" rgb(256, 256, 256)">
      <rect id="svg_635" x="1777.5" y="62.5" height="100" width="100"/>
     </g>
    </g>
    <g id="svg_636" transform="translate(840, 920) scale(0.4)">
     <g id="svg_637" fill=" rgb(256, 256, 256)">
      <rect id="svg_638" x="1777.5" y="62.5" height="100" width="100"/>
     </g>
    </g>
    <g id="svg_639" transform="translate(880, 920) scale(0.4)">
     <g id="svg_640" fill=" rgb(256, 256, 256)">
      <rect id="svg_641" x="1777.5" y="62.5" height="100" width="100"/>
     </g>
    </g>
    <g id="svg_642" transform="translate(920, 920) scale(0.4)">
     <g id="svg_643" fill=" rgb(256, 256, 256)">
      <rect id="svg_644" x="1777.5" y="62.5" height="100" width="100"/>
     </g>
    </g>
    <g id="svg_645" transform="translate(320, 960) scale(0.08)">
     <g id="svg_646" fill=" rgb(256, 256, 256)">
      <path id="svg_647" d="m9137.5,312.5c138.077,0 250,111.93 250,250c0,138.077 -111.923,250 -250,250c-138.07,0 -250,-111.923 -250,-250c0,-138.07 111.93,-250 250,-250z"/>
     </g>
    </g>
    <g id="svg_648" transform="translate(480, 960) scale(2.85714)">
     <g id="svg_649" fill=" rgb(256, 256, 256)">
      <path id="svg_650" d="m262.849,8.75l0,14c0,0 -9.151,-4.381 -14,-0.551c0,0 -0.241,-13.449 14,-13.449z"/>
     </g>
    </g>
    <g id="svg_651" transform="translate(520, 960) scale(2.85714)">
     <g id="svg_652" fill=" rgb(256, 256, 256)">
      <path id="svg_653" d="m248.85,22.75l0,-14l13.971,0l0.029,0l0,3.43c0,5.84 -6.268,10.57 -14,10.57z"/>
     </g>
    </g>
    <g id="svg_654" transform="translate(600, 960) scale(2.85714)">
     <g id="svg_655" fill=" rgb(256, 256, 256)">
      <path id="svg_656" d="m248.849,8.75l14,0c0,0 -4.381,9.151 -0.551,14c0,0 -13.449,0.24 -13.449,-14z"/>
     </g>
    </g>
    <g id="svg_657" transform="translate(880, 960) scale(2.85714)">
     <g id="svg_658" fill=" rgb(256, 256, 256)">
      <path id="svg_659" d="m248.85,8.749l14,0l0,13.97l0,0.029l-3.431,0.001c-5.838,0 -10.569,-6.268 -10.569,-14z"/>
     </g>
    </g>
    <g id="svg_660" transform="translate(920, 960) scale(0.4)">
     <g id="svg_661" fill=" rgb(256, 256, 256)">
      <rect id="svg_662" x="1777.5" y="62.5" height="100" width="100"/>
     </g>
    </g>
    <g id="svg_663" transform="translate(960, 960) scale(2.85714)">
     <g id="svg_664" fill=" rgb(256, 256, 256)">
      <path id="svg_665" d="m248.85,22.75l0,-14c0,0 9.15,4.38 14,0.55c0,0 0.24,13.45 -14,13.45z"/>
     </g>
    </g>
    <g id="svg_666" transform="translate(0) scale(2.8)">
     <g id="svg_667" fill=" rgb(256, 256, 256)" transform="translate(0, 100) scale(1, -1)">
      <g id="svg_668"/>
      <g id="svg_669">
       <path id="svg_670" d="m268.94858,25.21643l-0.016,50.855l51.246,0c10.339,0 18.75,-8.586 18.75,-19.14l0,-50.86l-51.22,0c-10.344,0 -18.76,8.586 -18.76,19.145z" fill="none"/>
       <path id="svg_671" d="m320.17858,-8.92857l-32.47,0c-18.62,0 -33.76,15.32 -33.76,34.14l-0.02,65.86l66.25,0c18.61,0 33.75,-15.32 33.75,-34.14l0,-31.72l0,-34.14l-33.75,0zm18.75,65.86c0,10.554 -8.411,19.14 -18.75,19.14l-51.246,0l0.016,-50.855c0,-10.559 8.416,-19.145 18.76,-19.145l51.22,0l0,50.86z"/>
      </g>
     </g>
    </g>
    <g id="svg_672" transform="translate(720) scale(2.8)">
     <g id="svg_673" fill=" rgb(256, 256, 256)">
      <g id="svg_674"/>
      <g id="svg_675">
       <path id="svg_676" d="m268.94858,43.07357l-0.016,50.855l51.246,0c10.339,0 18.75,-8.586 18.75,-19.14l0,-50.86l-51.22,0c-10.344,0 -18.76,8.586 -18.76,19.145z" fill="none"/>
       <path id="svg_677" d="m320.17858,8.92857l-32.47,0c-18.62,0 -33.76,15.32 -33.76,34.14l-0.02,65.86l66.25,0c18.61,0 33.75,-15.32 33.75,-34.14l0,-31.72l0,-34.14l-33.75,0zm18.75,65.86c0,10.554 -8.411,19.14 -18.75,19.14l-51.246,0l0.016,-50.855c0,-10.559 8.416,-19.145 18.76,-19.145l51.22,0l0,50.86z"/>
      </g>
     </g>
    </g>
    <g id="svg_678" transform="translate(0, 720) scale(2.8)">
     <g id="svg_679" fill=" rgb(256, 256, 256)">
      <g id="svg_680"/>
      <g id="svg_681">
       <path id="svg_682" d="m268.94858,43.07357l-0.016,50.855l51.246,0c10.339,0 18.75,-8.586 18.75,-19.14l0,-50.86l-51.22,0c-10.344,0 -18.76,8.586 -18.76,19.145z" fill="none"/>
       <path id="svg_683" d="m320.17858,8.92857l-32.47,0c-18.62,0 -33.76,15.32 -33.76,34.14l-0.02,65.86l66.25,0c18.61,0 33.75,-15.32 33.75,-34.14l0,-31.72l0,-34.14l-33.75,0zm18.75,65.86c0,10.554 -8.411,19.14 -18.75,19.14l-51.246,0l0.016,-50.855c0,-10.559 8.416,-19.145 18.76,-19.145l51.22,0l0,50.86z"/>
      </g>
     </g>
    </g>
    <g id="svg_684" transform="translate(80, 80) scale(1.17647)">
     <g id="svg_685" fill=" rgb(256, 256, 256)">
      <circle id="svg_686" r="50" cy="71.25" cx="654.34997"/>
     </g>
    </g>
    <g id="svg_687" transform="translate(800, 80) scale(1.17647)">
     <g id="svg_688" fill=" rgb(256, 256, 256)">
      <circle id="svg_689" r="50" cy="71.25" cx="654.34997"/>
     </g>
    </g>
    <g id="svg_690" transform="translate(80, 800) scale(1.17647)">
     <g id="svg_691" fill=" rgb(256, 256, 256)">
      <circle id="svg_692" r="50" cy="71.25" cx="654.34997"/>
     </g>
    </g>
   </g>
  </g>
  <text transform="rotate(-45, 1189.22, 1162.65) matrix(6.28219, 0, 0, 5.9214, -2554.29, -6948.22)" font-weight="bold" xml:space="preserve" text-anchor="start" font-family="Helvetica, Arial, sans-serif" font-size="44" id="svg_693" y="1381.74619" x="515.6258" fill-opacity="null" stroke-width="0" stroke="#ffffff" fill="#ffffff">VAKZIN</text>
 </g>
</svg>